<svg xmlns="http://www.w3.org/2000/svg" viewBox="0 0 80.01 79.02"><title>WebsiteIcon</title><path d="M44.19,19.17A40.14,40.14,0,0,0,18.54,36.54h14.7C35.76,28.67,39.62,22.5,44.19,19.17Zm15.59,0c4.57,3.33,8.4,9.5,11,17.37H85.4A40.1,40.1,0,0,0,59.78,19.17ZM54,20.66V36.54H66.83C64,28,59.46,21.83,54,20.66Zm-4,0C44.58,22,40.15,28,37.31,36.54H50ZM16.2,40.57A40.14,40.14,0,0,0,12,56.66H30a73.53,73.53,0,0,1,2.13-16.09Zm20,0a73.58,73.58,0,0,0-2.09,16.09H50V40.57Zm17.79,0V56.66H70.06A74.18,74.18,0,0,0,68,40.57Zm17.89,0A75.39,75.39,0,0,1,74,56.66H92a40.31,40.31,0,0,0-4.22-16.09ZM12,60.7A40,40,0,0,0,16.2,76.79H32.07A75.74,75.74,0,0,1,30,60.7Zm22.11,0a73.26,73.26,0,0,0,2.09,16.09H50V60.7ZM54,60.7V76.79H68a71.48,71.48,0,0,0,2.1-16.09Zm20,0A75.74,75.74,0,0,1,71.9,76.79H87.77A40.13,40.13,0,0,0,92,60.7ZM18.54,80.83A40,40,0,0,0,44.12,98.19c-4.54-3.33-8.36-9.5-10.88-17.36Zm18.77,0C40.15,89.37,44.54,95.46,50,96.7V80.83Zm16.66,0V96.74c5.53-1.17,10-7.3,12.86-15.91Zm16.76,0c-2.52,7.86-6.34,14-10.88,17.36A40,40,0,0,0,85.43,80.83Z" transform="translate(-11.98 -19.17)"/></svg>